<svg xmlns="http://www.w3.org/2000/svg" xmlns:xlink="http://www.w3.org/1999/xlink" width="1289" zoomAndPan="magnify" viewBox="0 0 966.75 1378.499959" height="1838" preserveAspectRatio="xMidYMid meet" version="1.0"><defs><clipPath id="18b240d417"><path d="M 0.0507812 197.074219 L 399.902344 197.074219 L 399.902344 1377.882812 L 0.0507812 1377.882812 Z M 0.0507812 197.074219 " clip-rule="nonzero"/></clipPath><clipPath id="a80694d7ab"><path d="M 199.976562 197.074219 C 89.558594 197.074219 0.0507812 461.40625 0.0507812 787.476562 C 0.0507812 1113.550781 89.558594 1377.882812 199.976562 1377.882812 C 310.390625 1377.882812 399.902344 1113.550781 399.902344 787.476562 C 399.902344 461.40625 310.390625 197.074219 199.976562 197.074219 Z M 199.976562 197.074219 " clip-rule="nonzero"/></clipPath><clipPath id="e5d3c54579"><path d="M 0.0507812 197.074219 L 399.65625 197.074219 L 399.65625 1377.882812 L 0.0507812 1377.882812 Z M 0.0507812 197.074219 " clip-rule="nonzero"/></clipPath><clipPath id="0528b89d8c"><path d="M 199.976562 197.074219 C 89.558594 197.074219 0.0507812 461.40625 0.0507812 787.476562 C 0.0507812 1113.550781 89.558594 1377.882812 199.976562 1377.882812 C 310.390625 1377.882812 399.902344 1113.550781 399.902344 787.476562 C 399.902344 461.40625 310.390625 197.074219 199.976562 197.074219 Z M 199.976562 197.074219 " clip-rule="nonzero"/></clipPath><clipPath id="9c4dbf3f75"><path d="M 566.507812 197.074219 L 966.355469 197.074219 L 966.355469 1377.882812 L 566.507812 1377.882812 Z M 566.507812 197.074219 " clip-rule="nonzero"/></clipPath><clipPath id="41d0643909"><path d="M 766.429688 197.074219 C 656.015625 197.074219 566.507812 461.40625 566.507812 787.476562 C 566.507812 1113.550781 656.015625 1377.882812 766.429688 1377.882812 C 876.847656 1377.882812 966.355469 1113.550781 966.355469 787.476562 C 966.355469 461.40625 876.847656 197.074219 766.429688 197.074219 Z M 766.429688 197.074219 " clip-rule="nonzero"/></clipPath><clipPath id="739cb7aff2"><path d="M 566.507812 197.074219 L 966.109375 197.074219 L 966.109375 1377.882812 L 566.507812 1377.882812 Z M 566.507812 197.074219 " clip-rule="nonzero"/></clipPath><clipPath id="4d8ba9fc1c"><path d="M 766.429688 197.074219 C 656.015625 197.074219 566.507812 461.40625 566.507812 787.476562 C 566.507812 1113.550781 656.015625 1377.882812 766.429688 1377.882812 C 876.847656 1377.882812 966.355469 1113.550781 966.355469 787.476562 C 966.355469 461.40625 876.847656 197.074219 766.429688 197.074219 Z M 766.429688 197.074219 " clip-rule="nonzero"/></clipPath><clipPath id="4f1bd10be6"><path d="M 24.816406 470.621094 L 375.136719 470.621094 L 375.136719 1168.523438 L 24.816406 1168.523438 Z M 24.816406 470.621094 " clip-rule="nonzero"/></clipPath><clipPath id="950f048b9e"><path d="M 199.976562 470.621094 C 103.238281 470.621094 24.816406 626.847656 24.816406 819.558594 C 24.816406 1012.273438 103.238281 1168.496094 199.976562 1168.496094 C 296.714844 1168.496094 375.136719 1012.273438 375.136719 819.558594 C 375.136719 626.847656 296.714844 470.621094 199.976562 470.621094 Z M 199.976562 470.621094 " clip-rule="nonzero"/></clipPath><clipPath id="f482b15dd7"><path d="M 24.816406 470.628906 L 374.9375 470.628906 L 374.9375 1168.621094 L 24.816406 1168.621094 Z M 24.816406 470.628906 " clip-rule="nonzero"/></clipPath><clipPath id="ed4ffd57dc"><path d="M 199.972656 470.628906 C 103.234375 470.628906 24.816406 626.847656 24.816406 819.558594 C 24.816406 1012.265625 103.234375 1168.484375 199.972656 1168.484375 C 296.707031 1168.484375 375.125 1012.265625 375.125 819.558594 C 375.125 626.847656 296.707031 470.628906 199.972656 470.628906 Z M 199.972656 470.628906 " clip-rule="nonzero"/></clipPath><clipPath id="b5f7fb563c"><path d="M 129 283 L 213 283 L 213 364.648438 L 129 364.648438 Z M 129 283 " clip-rule="nonzero"/></clipPath><clipPath id="0cbe04f570"><path d="M 415 91 L 514 91 L 514 143.949219 L 415 143.949219 Z M 415 91 " clip-rule="nonzero"/></clipPath><clipPath id="e393227e24"><path d="M 609 91 L 675 91 L 675 143.949219 L 609 143.949219 Z M 609 91 " clip-rule="nonzero"/></clipPath><clipPath id="148f856d66"><path d="M 212 787.476562 L 234 787.476562 L 234 873.847656 L 212 873.847656 Z M 212 787.476562 " clip-rule="nonzero"/></clipPath><clipPath id="0068030870"><path d="M 307 787.476562 L 329 787.476562 L 329 873.847656 L 307 873.847656 Z M 307 787.476562 " clip-rule="nonzero"/></clipPath><clipPath id="cf173e755e"><path d="M 591.273438 481.722656 L 941.589844 481.722656 L 941.589844 1179.625 L 591.273438 1179.625 Z M 591.273438 481.722656 " clip-rule="nonzero"/></clipPath><clipPath id="ee0c0d895e"><path d="M 766.429688 481.722656 C 669.695312 481.722656 591.273438 637.949219 591.273438 830.660156 C 591.273438 1023.375 669.695312 1179.597656 766.429688 1179.597656 C 863.167969 1179.597656 941.589844 1023.375 941.589844 830.660156 C 941.589844 637.949219 863.167969 481.722656 766.429688 481.722656 Z M 766.429688 481.722656 " clip-rule="nonzero"/></clipPath><clipPath id="47bf079461"><path d="M 591.273438 481.730469 L 941.394531 481.730469 L 941.394531 1179.722656 L 591.273438 1179.722656 Z M 591.273438 481.730469 " clip-rule="nonzero"/></clipPath><clipPath id="f03601274b"><path d="M 766.425781 481.730469 C 669.691406 481.730469 591.273438 637.949219 591.273438 830.660156 C 591.273438 1023.367188 669.691406 1179.585938 766.425781 1179.585938 C 863.164062 1179.585938 941.582031 1023.367188 941.582031 830.660156 C 941.582031 637.949219 863.164062 481.730469 766.425781 481.730469 Z M 766.425781 481.730469 " clip-rule="nonzero"/></clipPath><clipPath id="feaa7765ca"><path d="M 770 961.238281 L 792 961.238281 L 792 1047.605469 L 770 1047.605469 Z M 770 961.238281 " clip-rule="nonzero"/></clipPath><clipPath id="13ff86f495"><path d="M 867 961.238281 L 889 961.238281 L 889 1047.605469 L 867 1047.605469 Z M 867 961.238281 " clip-rule="nonzero"/></clipPath><clipPath id="6d7052ae4d"><path d="M 757.949219 813.699219 L 774.914062 813.699219 L 774.914062 830.660156 L 757.949219 830.660156 Z M 757.949219 813.699219 " clip-rule="nonzero"/></clipPath><clipPath id="a13c411222"><path d="M 766.429688 813.699219 C 761.746094 813.699219 757.949219 817.496094 757.949219 822.179688 C 757.949219 826.863281 761.746094 830.660156 766.429688 830.660156 C 771.117188 830.660156 774.914062 826.863281 774.914062 822.179688 C 774.914062 817.496094 771.117188 813.699219 766.429688 813.699219 Z M 766.429688 813.699219 " clip-rule="nonzero"/></clipPath><clipPath id="4fa79b0daf"><path d="M 206 1154 L 792 1154 L 792 1378 L 206 1378 Z M 206 1154 " clip-rule="nonzero"/></clipPath><clipPath id="75394c4746"><path d="M 791 783.421875 L 843 783.421875 L 843 869.789062 L 791 869.789062 Z M 791 783.421875 " clip-rule="nonzero"/></clipPath></defs><g clip-path="url(#18b240d417)"><g clip-path="url(#a80694d7ab)"><path fill="#ffffff" d="M 0.0507812 197.074219 L 399.902344 197.074219 L 399.902344 1377.882812 L 0.0507812 1377.882812 Z M 0.0507812 197.074219 " fill-opacity="1" fill-rule="nonzero"/></g></g><g clip-path="url(#e5d3c54579)"><g clip-path="url(#0528b89d8c)"><path stroke-linecap="butt" transform="matrix(0.749728, 0, 0, 0.749728, 0.0503536, 197.072334)" fill="none" stroke-linejoin="miter" d="M 266.664985 0.0025139 C 119.387617 0.0025139 0.00057046 352.573083 0.00057046 787.491224 C 0.00057046 1222.414575 119.387617 1574.985144 266.664985 1574.985144 C 413.937144 1574.985144 533.3294 1222.414575 533.3294 787.491224 C 533.3294 352.573083 413.937144 0.0025139 266.664985 0.0025139 Z M 266.664985 0.0025139 " stroke="#000000" stroke-width="12" stroke-opacity="1" stroke-miterlimit="4"/></g></g><g clip-path="url(#9c4dbf3f75)"><g clip-path="url(#41d0643909)"><path fill="#ffffff" d="M 566.507812 197.074219 L 966.355469 197.074219 L 966.355469 1377.882812 L 566.507812 1377.882812 Z M 566.507812 197.074219 " fill-opacity="1" fill-rule="nonzero"/></g></g><g clip-path="url(#739cb7aff2)"><g clip-path="url(#4d8ba9fc1c)"><path stroke-linecap="butt" transform="matrix(0.749728, 0, 0, 0.749728, 566.506085, 197.072334)" fill="none" stroke-linejoin="miter" d="M 266.661509 0.0025139 C 119.38935 0.0025139 0.00230393 352.573083 0.00230393 787.491224 C 0.00230393 1222.414575 119.38935 1574.985144 266.661509 1574.985144 C 413.938878 1574.985144 533.325924 1222.414575 533.325924 787.491224 C 533.325924 352.573083 413.938878 0.0025139 266.661509 0.0025139 Z M 266.661509 0.0025139 " stroke="#000000" stroke-width="12" stroke-opacity="1" stroke-miterlimit="4"/></g></g><g clip-path="url(#4f1bd10be6)"><g clip-path="url(#950f048b9e)"><path fill="#a6a6a6" d="M 24.816406 470.621094 L 375.136719 470.621094 L 375.136719 1168.523438 L 24.816406 1168.523438 Z M 24.816406 470.621094 " fill-opacity="1" fill-rule="nonzero"/></g></g><g clip-path="url(#f482b15dd7)"><g clip-path="url(#ed4ffd57dc)"><path stroke-linecap="butt" transform="matrix(0.749728, 0, 0, 0.749728, 24.816246, 470.628119)" fill="none" stroke-linejoin="miter" d="M 233.626606 0.00104951 C 104.595437 0.00104951 0.000214017 208.368281 0.000214017 465.409415 C 0.000214017 722.445338 104.595437 930.812569 233.626606 930.812569 C 362.652564 930.812569 467.247788 722.445338 467.247788 465.409415 C 467.247788 208.368281 362.652564 0.00104951 233.626606 0.00104951 Z M 233.626606 0.00104951 " stroke="#000000" stroke-width="12" stroke-opacity="1" stroke-miterlimit="4"/></g></g><g clip-path="url(#b5f7fb563c)"><path fill="#000000" d="M 130.03125 286.09375 C 130.03125 285.550781 130.46875 284.847656 131.347656 283.988281 L 154.398438 283.988281 C 169.84375 284.144531 178.523438 284.378906 180.4375 284.691406 C 182.1875 285.003906 183.859375 285.394531 185.453125 285.859375 C 187.042969 286.328125 188.4375 286.835938 189.632812 287.382812 C 190.828125 287.929688 191.941406 288.511719 192.976562 289.136719 C 194.011719 289.761719 194.886719 290.386719 195.605469 291.011719 C 196.320312 291.632812 197.039062 292.257812 197.753906 292.882812 C 198.472656 293.507812 198.988281 294.089844 199.308594 294.636719 C 199.625 295.183594 200.023438 295.730469 200.5 296.277344 C 200.980469 296.820312 201.257812 297.328125 201.335938 297.796875 C 201.417969 298.265625 201.578125 298.695312 201.816406 299.085938 L 202.171875 299.785156 C 202.570312 301.191406 202.769531 303.179688 202.769531 305.753906 C 202.769531 309.65625 202.253906 312.699219 201.21875 314.882812 C 198.429688 320.421875 192.859375 324.050781 184.496094 325.765625 L 182.347656 326.351562 C 182.902344 327.210938 183.621094 328.339844 184.496094 329.746094 C 185.371094 331.148438 187.125 333.722656 189.753906 337.46875 C 192.378906 341.214844 194.808594 344.527344 197.039062 347.414062 C 199.265625 350.300781 201.617188 352.992188 204.085938 355.492188 C 206.554688 357.988281 208.503906 359.429688 209.9375 359.820312 C 211.449219 360.210938 212.207031 360.953125 212.207031 362.042969 C 212.207031 362.746094 211.730469 363.410156 210.773438 364.03125 L 188.917969 364.03125 C 188.359375 363.488281 184.136719 357.246094 176.253906 345.308594 L 164.550781 327.636719 L 160.011719 327.636719 L 160.011719 342.5 C 160.171875 351.550781 160.289062 356.386719 160.371094 357.011719 C 160.609375 358.339844 161.40625 359.15625 162.757812 359.46875 C 163.078125 359.546875 164.191406 359.664062 166.101562 359.820312 C 168.09375 359.820312 169.449219 360.09375 170.164062 360.640625 C 170.878906 361.496094 170.878906 362.472656 170.164062 363.566406 L 169.328125 364.03125 L 131.347656 364.03125 C 130.390625 363.566406 129.914062 362.902344 129.914062 362.042969 C 129.914062 360.5625 131.464844 359.820312 134.570312 359.820312 C 137.835938 359.585938 139.667969 358.921875 140.066406 357.832031 C 140.464844 357.207031 140.664062 345.933594 140.664062 324.011719 C 140.664062 302.089844 140.464844 290.738281 140.066406 289.957031 C 139.585938 288.941406 137.757812 288.320312 134.570312 288.085938 C 131.546875 288.085938 130.03125 287.421875 130.03125 286.09375 Z M 156.785156 359.820312 C 156.546875 359.273438 156.390625 358.882812 156.308594 358.648438 C 156.230469 358.414062 156.148438 357.128906 156.070312 354.789062 C 155.992188 352.449219 155.910156 349.132812 155.832031 344.839844 C 155.75 340.550781 155.75 333.761719 155.832031 324.480469 L 155.832031 291.242188 L 156.308594 289.605469 L 157.144531 288.085938 L 143.886719 288.085938 C 144.125 288.628906 144.285156 289.019531 144.363281 289.253906 C 144.445312 289.488281 144.523438 290.855469 144.605469 293.351562 C 144.683594 295.847656 144.761719 299.203125 144.84375 303.414062 C 144.921875 307.628906 144.921875 314.492188 144.84375 324.011719 C 144.84375 340.394531 144.804688 350.222656 144.722656 353.5 C 144.644531 356.777344 144.40625 358.804688 144.007812 359.585938 C 143.925781 359.664062 143.886719 359.742188 143.886719 359.820312 Z M 182.585938 305.871094 C 182.585938 302.4375 182.265625 299.554688 181.628906 297.210938 C 180.992188 294.871094 180.039062 293.117188 178.765625 291.945312 C 177.488281 290.777344 176.496094 290.035156 175.777344 289.722656 C 175.0625 289.410156 174.144531 289.058594 173.03125 288.667969 C 172.792969 288.667969 171.277344 288.472656 168.492188 288.085938 C 165.386719 288.085938 163.078125 288.589844 161.5625 289.605469 C 160.769531 290.152344 160.332031 291.128906 160.25 292.53125 C 160.171875 293.9375 160.089844 298.96875 160.011719 307.628906 L 160.011719 323.425781 L 161.921875 323.425781 C 165.347656 323.425781 168.96875 323.191406 172.792969 322.722656 C 176.453125 321.789062 179.003906 320.226562 180.4375 318.042969 C 181.867188 315.859375 182.585938 311.800781 182.585938 305.871094 Z M 186.765625 301.074219 C 186.765625 301.074219 186.765625 302.671875 186.765625 305.871094 C 186.765625 309.070312 186.605469 311.761719 186.289062 313.945312 C 185.96875 316.132812 185.570312 317.613281 185.09375 318.394531 C 184.617188 319.175781 184.257812 319.875 184.019531 320.5 C 183.78125 321.125 183.582031 321.515625 183.421875 321.671875 C 183.421875 321.75 183.460938 321.789062 183.542969 321.789062 C 183.859375 321.789062 185.132812 321.398438 187.363281 320.617188 C 195.007812 318.277344 198.828125 313.402344 198.828125 305.988281 C 198.828125 298.421875 194.210938 293.15625 184.972656 290.191406 L 182.585938 289.371094 L 183.0625 290.660156 C 184.097656 291.828125 185.171875 294.363281 186.289062 298.265625 C 186.605469 300.136719 186.765625 302.671875 186.765625 305.871094 Z M 183.421875 335.480469 C 179.203125 329.707031 177.050781 326.820312 176.972656 326.820312 C 176.496094 326.820312 176.136719 326.898438 175.898438 327.054688 C 174.542969 327.054688 173.308594 327.171875 172.195312 327.40625 L 169.328125 327.40625 L 190.828125 359.820312 L 201.933594 359.820312 L 200.382812 358.066406 C 196.160156 353.460938 190.507812 345.933594 183.421875 335.480469 Z M 183.421875 335.480469 " fill-opacity="1" fill-rule="nonzero"/></g><path fill="#000000" d="M 219.953125 291.839844 C 220.007812 291.507812 220.09375 291.066406 220.207031 290.515625 C 220.316406 289.964844 220.65625 288.917969 221.21875 287.371094 C 221.78125 285.828125 222.34375 284.53125 222.90625 283.484375 C 223.46875 282.433594 224.398438 281.414062 225.695312 280.421875 C 226.988281 279.429688 228.285156 278.960938 229.578125 279.015625 C 231.605469 279.015625 233.292969 279.511719 234.644531 280.503906 C 235.996094 281.496094 236.839844 282.433594 237.179688 283.316406 C 237.515625 284.199219 237.683594 284.78125 237.683594 285.054688 C 237.683594 285.164062 237.714844 285.222656 237.769531 285.222656 L 238.699219 284.3125 C 242.132812 280.78125 246.046875 279.015625 250.4375 279.015625 C 253.476562 279.015625 255.925781 279.761719 257.78125 281.25 C 259.640625 282.738281 260.597656 284.917969 260.652344 287.785156 C 260.710938 290.652344 259.640625 294.984375 257.445312 300.773438 C 255.25 306.566406 254.179688 310.070312 254.234375 311.28125 C 254.234375 312.71875 254.714844 313.433594 255.671875 313.433594 C 256.007812 313.433594 256.261719 313.40625 256.429688 313.351562 C 258.0625 313.074219 259.527344 312.027344 260.824219 310.207031 C 262.117188 308.386719 263.101562 306.179688 263.777344 303.589844 C 263.890625 303.148438 264.453125 302.925781 265.46875 302.925781 C 266.59375 302.925781 267.15625 303.148438 267.15625 303.589844 C 267.15625 303.644531 267.042969 304.058594 266.816406 304.828125 C 266.367188 306.429688 265.75 308 264.960938 309.546875 C 264.171875 311.089844 262.878906 312.632812 261.074219 314.179688 C 259.273438 315.722656 257.332031 316.46875 255.25 316.414062 C 252.601562 316.414062 250.6875 315.667969 249.507812 314.179688 C 248.324219 312.6875 247.734375 311.144531 247.734375 309.546875 C 247.734375 308.496094 248.746094 305.1875 250.773438 299.617188 C 252.800781 294.046875 253.84375 289.855469 253.898438 287.042969 C 253.898438 283.785156 252.660156 282.160156 250.183594 282.160156 L 249.761719 282.160156 C 244.917969 282.160156 240.835938 284.945312 237.515625 290.515625 L 236.925781 291.507812 L 234.136719 302.59375 C 232.28125 309.820312 231.210938 313.710938 230.929688 314.261719 C 230.199219 315.75 228.988281 316.496094 227.296875 316.496094 C 226.566406 316.496094 225.976562 316.328125 225.523438 316 C 225.074219 315.667969 224.765625 315.335938 224.597656 315.007812 C 224.425781 314.675781 224.371094 314.398438 224.425781 314.179688 C 224.425781 313.460938 225.496094 308.964844 227.636719 300.691406 C 229.777344 292.417969 230.902344 287.921875 231.015625 287.207031 C 231.070312 286.929688 231.097656 286.296875 231.097656 285.304688 C 231.097656 283.152344 230.421875 282.078125 229.070312 282.078125 C 226.933594 282.078125 225.160156 284.835938 223.75 290.351562 C 223.414062 291.453125 223.246094 292.03125 223.246094 292.089844 C 223.132812 292.417969 222.597656 292.585938 221.640625 292.585938 L 220.457031 292.585938 C 220.121094 292.253906 219.953125 292.003906 219.953125 291.839844 Z M 219.953125 291.839844 " fill-opacity="1" fill-rule="nonzero"/><path fill="#000000" d="M 685.617188 286.390625 C 685.617188 285.851562 686.039062 285.15625 686.882812 284.304688 L 709.097656 284.304688 C 723.984375 284.457031 732.347656 284.691406 734.1875 285 C 735.875 285.308594 737.488281 285.695312 739.023438 286.160156 C 740.554688 286.625 741.898438 287.128906 743.050781 287.667969 C 744.199219 288.210938 745.273438 288.789062 746.273438 289.410156 C 747.269531 290.027344 748.113281 290.648438 748.804688 291.265625 C 749.496094 291.886719 750.1875 292.503906 750.875 293.121094 C 751.566406 293.742188 752.066406 294.320312 752.371094 294.863281 C 752.679688 295.40625 753.0625 295.945312 753.523438 296.488281 C 753.984375 297.03125 754.253906 297.53125 754.328125 297.996094 C 754.40625 298.460938 754.558594 298.886719 754.789062 299.273438 L 755.132812 299.96875 C 755.519531 301.363281 755.710938 303.335938 755.710938 305.886719 C 755.710938 309.753906 755.210938 312.773438 754.214844 314.9375 C 751.527344 320.429688 746.15625 324.027344 738.101562 325.730469 L 736.027344 326.308594 C 736.566406 327.160156 737.257812 328.28125 738.101562 329.675781 C 738.945312 331.066406 740.632812 333.621094 743.164062 337.335938 C 745.695312 341.046875 748.039062 344.335938 750.1875 347.199219 C 752.335938 350.058594 754.597656 352.730469 756.976562 355.203125 C 759.355469 357.679688 761.234375 359.109375 762.617188 359.496094 C 764.074219 359.882812 764.800781 360.621094 764.800781 361.703125 C 764.800781 362.398438 764.34375 363.054688 763.421875 363.675781 L 742.359375 363.675781 C 741.820312 363.132812 737.753906 356.945312 730.160156 345.109375 L 718.878906 327.585938 L 714.507812 327.585938 L 714.507812 342.324219 C 714.660156 351.296875 714.773438 356.09375 714.851562 356.710938 C 715.082031 358.027344 715.847656 358.839844 717.152344 359.148438 C 717.460938 359.226562 718.535156 359.34375 720.375 359.496094 C 722.292969 359.496094 723.597656 359.769531 724.289062 360.308594 C 724.980469 361.160156 724.980469 362.128906 724.289062 363.210938 L 723.484375 363.675781 L 686.882812 363.675781 C 685.964844 363.210938 685.503906 362.554688 685.503906 361.703125 C 685.503906 360.234375 687 359.496094 689.992188 359.496094 C 693.136719 359.265625 694.902344 358.609375 695.285156 357.523438 C 695.667969 356.90625 695.863281 345.726562 695.863281 323.988281 C 695.863281 302.25 695.667969 290.996094 695.285156 290.222656 C 694.824219 289.214844 693.0625 288.597656 689.992188 288.363281 C 687.074219 288.363281 685.617188 287.707031 685.617188 286.390625 Z M 711.398438 359.496094 C 711.167969 358.957031 711.015625 358.570312 710.9375 358.335938 C 710.863281 358.105469 710.785156 356.828125 710.707031 354.507812 C 710.632812 352.1875 710.554688 348.898438 710.476562 344.644531 C 710.402344 340.390625 710.402344 333.660156 710.476562 324.453125 L 710.476562 291.5 L 710.9375 289.875 L 711.746094 288.363281 L 698.96875 288.363281 C 699.199219 288.90625 699.351562 289.292969 699.429688 289.527344 C 699.507812 289.757812 699.582031 291.113281 699.660156 293.585938 C 699.734375 296.0625 699.8125 299.390625 699.890625 303.566406 C 699.964844 307.742188 699.964844 314.550781 699.890625 323.988281 C 699.890625 340.234375 699.851562 349.984375 699.773438 353.230469 C 699.699219 356.480469 699.46875 358.492188 699.085938 359.265625 C 699.007812 359.34375 698.96875 359.421875 698.96875 359.496094 Z M 736.257812 306.003906 C 736.257812 302.597656 735.953125 299.738281 735.339844 297.417969 C 734.726562 295.09375 733.804688 293.355469 732.578125 292.195312 C 731.347656 291.035156 730.390625 290.300781 729.699219 289.988281 C 729.007812 289.679688 728.125 289.332031 727.050781 288.945312 C 726.820312 288.945312 725.363281 288.75 722.679688 288.363281 C 719.6875 288.363281 717.460938 288.867188 716.003906 289.875 C 715.234375 290.414062 714.8125 291.382812 714.738281 292.773438 C 714.660156 294.167969 714.582031 299.15625 714.507812 307.742188 L 714.507812 323.410156 L 716.347656 323.410156 C 719.648438 323.410156 723.140625 323.175781 726.820312 322.714844 C 730.351562 321.785156 732.804688 320.238281 734.1875 318.070312 C 735.570312 315.90625 736.257812 311.882812 736.257812 306.003906 Z M 740.289062 301.246094 C 740.289062 301.246094 740.289062 302.832031 740.289062 306.003906 C 740.289062 309.175781 740.132812 311.84375 739.828125 314.011719 C 739.519531 316.175781 739.136719 317.644531 738.675781 318.417969 C 738.214844 319.191406 737.871094 319.890625 737.640625 320.507812 C 737.410156 321.128906 737.21875 321.515625 737.066406 321.667969 C 737.066406 321.746094 737.101562 321.785156 737.179688 321.785156 C 737.488281 321.785156 738.714844 321.398438 740.863281 320.625 C 748.230469 318.304688 751.910156 313.46875 751.910156 306.121094 C 751.910156 298.617188 747.460938 293.394531 738.5625 290.453125 L 736.257812 289.640625 L 736.71875 290.917969 C 737.71875 292.078125 738.753906 294.59375 739.828125 298.460938 C 740.132812 300.316406 740.289062 302.832031 740.289062 306.003906 Z M 737.066406 335.363281 C 733 329.636719 730.925781 326.773438 730.851562 326.773438 C 730.390625 326.773438 730.042969 326.851562 729.8125 327.007812 C 728.507812 327.007812 727.320312 327.121094 726.246094 327.355469 L 723.484375 327.355469 L 744.199219 359.496094 L 754.90625 359.496094 L 753.410156 357.757812 C 749.339844 353.191406 743.894531 345.726562 737.066406 335.363281 Z M 737.066406 335.363281 " fill-opacity="1" fill-rule="nonzero"/><path fill="#000000" d="M 772.265625 292.089844 C 772.320312 291.761719 772.402344 291.324219 772.511719 290.777344 C 772.617188 290.230469 772.945312 289.191406 773.488281 287.660156 C 774.027344 286.128906 774.570312 284.84375 775.113281 283.804688 C 775.65625 282.765625 776.523438 281.75 777.71875 280.765625 C 778.910156 279.78125 780.105469 279.316406 781.296875 279.371094 C 782.492188 279.425781 783.65625 279.617188 784.796875 279.945312 C 785.9375 280.273438 786.75 280.765625 787.238281 281.421875 C 787.726562 282.082031 788.160156 282.683594 788.539062 283.230469 C 788.921875 283.777344 789.136719 284.296875 789.191406 284.789062 L 789.355469 285.363281 C 789.355469 285.472656 789.382812 285.527344 789.433594 285.527344 L 790.332031 284.625 C 793.585938 281.121094 797.410156 279.371094 801.804688 279.371094 C 802.726562 279.371094 803.566406 279.425781 804.328125 279.535156 C 805.085938 279.644531 805.789062 279.835938 806.441406 280.109375 C 807.09375 280.382812 807.609375 280.65625 807.988281 280.929688 C 808.367188 281.203125 808.773438 281.53125 809.207031 281.914062 C 809.644531 282.300781 809.914062 282.65625 810.023438 282.984375 C 810.128906 283.3125 810.347656 283.667969 810.671875 284.050781 C 811 284.433594 811.105469 284.761719 811 285.035156 C 810.890625 285.308594 810.972656 285.554688 811.242188 285.773438 C 811.515625 285.992188 811.570312 286.183594 811.40625 286.347656 L 812.054688 285.527344 C 815.472656 281.421875 819.515625 279.371094 824.179688 279.371094 C 827.109375 279.371094 829.46875 280.109375 831.261719 281.585938 C 833.050781 283.066406 833.972656 285.226562 834.027344 288.070312 C 834.027344 290.859375 832.996094 295.179688 830.933594 301.03125 C 828.875 306.882812 827.84375 310.382812 827.84375 311.53125 C 827.898438 312.296875 828.03125 312.816406 828.25 313.089844 C 828.464844 313.363281 828.875 313.5 829.46875 313.5 C 830.988281 313.5 832.398438 312.679688 833.703125 311.039062 C 835.003906 309.398438 836.0625 307.15625 836.875 304.3125 C 837.039062 303.710938 837.199219 303.355469 837.363281 303.246094 C 837.527344 303.136719 837.960938 303.082031 838.664062 303.082031 C 839.75 303.082031 840.292969 303.300781 840.292969 303.738281 C 840.292969 303.792969 840.183594 304.203125 839.96875 304.96875 C 839.53125 306.554688 838.9375 308.113281 838.175781 309.644531 C 837.417969 311.175781 836.167969 312.707031 834.433594 314.238281 C 832.699219 315.769531 830.828125 316.507812 828.820312 316.453125 C 826.269531 316.453125 824.425781 315.714844 823.285156 314.238281 C 822.148438 312.761719 821.578125 311.230469 821.578125 309.644531 C 821.578125 308.605469 822.554688 305.324219 824.507812 299.800781 C 826.460938 294.277344 827.460938 290.121094 827.515625 287.332031 C 827.515625 284.105469 826.324219 282.492188 823.9375 282.492188 L 823.53125 282.492188 C 818.863281 282.492188 814.933594 285.253906 811.730469 290.777344 L 811.160156 291.761719 L 808.476562 302.753906 C 806.6875 309.917969 805.65625 313.773438 805.382812 314.320312 C 804.679688 315.796875 803.511719 316.535156 801.886719 316.535156 C 801.179688 316.535156 800.609375 316.34375 800.175781 315.960938 C 799.742188 315.578125 799.445312 315.25 799.28125 314.976562 C 799.117188 314.703125 799.039062 314.429688 799.039062 314.15625 C 799.039062 313.554688 799.960938 309.644531 801.804688 302.425781 L 804.734375 290.449219 C 804.894531 289.628906 804.976562 288.589844 804.976562 287.332031 C 804.976562 284.105469 803.785156 282.492188 801.398438 282.492188 L 800.988281 282.492188 C 796.324219 282.492188 792.390625 285.253906 789.191406 290.777344 L 788.621094 291.761719 L 785.9375 302.753906 C 784.144531 309.917969 783.117188 313.773438 782.84375 314.320312 C 782.140625 315.796875 780.972656 316.535156 779.34375 316.535156 C 778.640625 316.535156 778.070312 316.371094 777.636719 316.042969 C 777.203125 315.714844 776.902344 315.386719 776.742188 315.058594 C 776.578125 314.730469 776.523438 314.457031 776.578125 314.238281 C 776.578125 313.527344 777.609375 309.042969 779.671875 300.785156 C 781.785156 292.363281 782.84375 287.960938 782.84375 287.578125 C 783.007812 286.757812 783.089844 286.019531 783.089844 285.363281 C 783.089844 283.394531 782.410156 282.410156 781.054688 282.410156 C 779.859375 282.410156 778.855469 283.175781 778.042969 284.707031 C 777.230469 286.238281 776.605469 287.90625 776.171875 289.710938 C 775.738281 291.515625 775.414062 292.5 775.195312 292.664062 C 775.085938 292.773438 774.652344 292.828125 773.894531 292.828125 L 772.753906 292.828125 C 772.429688 292.5 772.265625 292.253906 772.265625 292.089844 Z M 772.265625 292.089844 " fill-opacity="1" fill-rule="nonzero"/><path fill="#000000" d="M 317.519531 105.761719 C 317.519531 108.398438 320.058594 109.933594 325.140625 110.375 C 327.125 110.375 328.121094 110.976562 328.121094 112.1875 C 328.121094 112.296875 328.011719 113.011719 327.789062 114.328125 C 327.457031 115.867188 327.125 116.855469 326.796875 117.292969 C 326.464844 117.734375 325.746094 117.953125 324.640625 117.953125 C 324.421875 117.953125 323.757812 117.953125 322.652344 117.953125 C 321.550781 117.953125 319.671875 117.898438 317.019531 117.789062 C 314.371094 117.675781 310.835938 117.621094 306.417969 117.621094 C 298.578125 117.621094 293.550781 117.734375 291.34375 117.953125 L 290.019531 117.953125 C 289.246094 117.183594 288.859375 116.578125 288.859375 116.140625 C 289.078125 113.175781 289.796875 111.253906 291.011719 110.375 L 293.332031 110.375 C 301.0625 110.042969 306.695312 107.300781 310.230469 102.136719 C 310.890625 101.476562 320.886719 84.730469 340.214844 51.890625 C 359.542969 19.054688 369.371094 2.417969 369.703125 1.976562 C 370.476562 0.660156 371.800781 0 373.679688 0 L 377.820312 0 C 378.480469 0.988281 378.8125 1.539062 378.8125 1.648438 L 383.453125 54.859375 C 386.542969 90.332031 388.199219 108.234375 388.421875 108.5625 C 388.972656 109.769531 392.5625 110.375 399.191406 110.375 C 401.949219 110.375 403.332031 110.921875 403.332031 112.023438 C 403.332031 112.242188 403.164062 113.011719 402.835938 114.328125 C 402.503906 115.976562 402.226562 116.964844 402.007812 117.292969 C 401.785156 117.621094 401.011719 117.84375 399.6875 117.953125 C 399.355469 117.953125 398.582031 117.953125 397.367188 117.953125 C 396.152344 117.953125 394 117.898438 390.90625 117.789062 C 387.8125 117.675781 383.785156 117.621094 378.8125 117.621094 C 368.433594 117.621094 361.640625 117.734375 358.4375 117.953125 L 356.449219 117.953125 C 355.785156 117.292969 355.457031 116.800781 355.457031 116.46875 C 355.457031 116.140625 355.566406 115.152344 355.785156 113.503906 C 356.226562 112.078125 356.558594 111.199219 356.78125 110.867188 L 357.441406 110.375 L 360.757812 110.375 C 366.71875 110.042969 370.253906 109.109375 371.359375 107.574219 L 369.371094 82.863281 L 329.941406 82.863281 L 324.3125 92.417969 C 319.78125 99.996094 317.519531 104.445312 317.519531 105.761719 Z M 368.542969 75.121094 C 368.542969 73.914062 367.878906 65.347656 366.554688 49.421875 C 365.230469 33.496094 364.457031 25.480469 364.234375 25.371094 L 359.761719 32.453125 C 357.996094 35.417969 354.515625 41.292969 349.324219 50.082031 L 334.414062 75.121094 L 351.480469 75.285156 C 362.855469 75.285156 368.542969 75.230469 368.542969 75.121094 Z M 368.542969 75.121094 " fill-opacity="1" fill-rule="nonzero"/><g clip-path="url(#0cbe04f570)"><path fill="#000000" d="M 415.234375 109.234375 C 415.3125 108.769531 415.429688 108.148438 415.585938 107.371094 C 415.742188 106.597656 416.210938 105.121094 416.992188 102.945312 C 417.769531 100.773438 418.550781 98.949219 419.332031 97.472656 C 420.113281 95.996094 421.363281 94.5625 423.082031 93.164062 C 424.796875 91.765625 426.515625 91.105469 428.234375 91.183594 C 429.953125 91.261719 431.632812 91.53125 433.269531 92 C 434.910156 92.464844 436.082031 93.164062 436.785156 94.09375 C 437.488281 95.027344 438.113281 95.882812 438.660156 96.65625 C 439.203125 97.433594 439.515625 98.171875 439.59375 98.871094 L 439.828125 99.6875 C 439.828125 99.839844 439.867188 99.917969 439.945312 99.917969 L 441.234375 98.636719 C 445.921875 93.667969 451.425781 91.183594 457.75 91.183594 C 459.078125 91.183594 460.289062 91.261719 461.378906 91.417969 C 462.472656 91.570312 463.488281 91.84375 464.425781 92.230469 C 465.363281 92.621094 466.105469 93.007812 466.652344 93.394531 C 467.199219 93.785156 467.78125 94.25 468.40625 94.792969 C 469.03125 95.335938 469.421875 95.84375 469.578125 96.308594 C 469.734375 96.773438 470.046875 97.277344 470.515625 97.820312 C 470.984375 98.367188 471.140625 98.832031 470.984375 99.21875 C 470.828125 99.609375 470.945312 99.957031 471.335938 100.269531 C 471.726562 100.578125 471.804688 100.851562 471.570312 101.082031 L 472.507812 99.917969 C 477.425781 94.09375 483.242188 91.183594 489.957031 91.183594 C 494.175781 91.183594 497.570312 92.230469 500.148438 94.328125 C 502.726562 96.425781 504.050781 99.492188 504.128906 103.527344 C 504.128906 107.488281 502.648438 113.625 499.679688 121.929688 C 496.710938 130.238281 495.230469 135.207031 495.230469 136.839844 C 495.308594 137.925781 495.503906 138.664062 495.816406 139.050781 C 496.125 139.441406 496.710938 139.632812 497.570312 139.632812 C 499.757812 139.632812 501.789062 138.46875 503.660156 136.140625 C 505.535156 133.8125 507.058594 130.628906 508.230469 126.589844 C 508.464844 125.734375 508.699219 125.230469 508.933594 125.074219 C 509.167969 124.921875 509.792969 124.84375 510.804688 124.84375 C 512.367188 124.84375 513.148438 125.152344 513.148438 125.773438 C 513.148438 125.851562 512.992188 126.433594 512.679688 127.523438 C 512.054688 129.773438 511.195312 131.988281 510.101562 134.160156 C 509.011719 136.335938 507.214844 138.507812 504.714844 140.683594 C 502.21875 142.855469 499.523438 143.90625 496.632812 143.828125 C 492.964844 143.828125 490.308594 142.78125 488.671875 140.683594 C 487.03125 138.585938 486.210938 136.414062 486.210938 134.160156 C 486.210938 132.683594 487.617188 128.027344 490.425781 120.183594 C 493.238281 112.34375 494.683594 106.441406 494.761719 102.480469 C 494.761719 97.898438 493.042969 95.609375 489.605469 95.609375 L 489.019531 95.609375 C 482.304688 95.609375 476.644531 99.53125 472.039062 107.371094 L 471.21875 108.769531 L 467.355469 124.378906 C 464.777344 134.546875 463.292969 140.023438 462.902344 140.800781 C 461.886719 142.894531 460.210938 143.945312 457.867188 143.945312 C 456.851562 143.945312 456.03125 143.671875 455.40625 143.128906 C 454.78125 142.585938 454.351562 142.121094 454.117188 141.730469 C 453.882812 141.34375 453.765625 140.953125 453.765625 140.566406 C 453.765625 139.710938 455.09375 134.160156 457.75 123.910156 L 461.964844 106.90625 C 462.199219 105.742188 462.316406 104.265625 462.316406 102.480469 C 462.316406 97.898438 460.597656 95.609375 457.164062 95.609375 L 456.578125 95.609375 C 449.863281 95.609375 444.203125 99.53125 439.59375 107.371094 L 438.777344 108.769531 L 434.910156 124.378906 C 432.332031 134.546875 430.851562 140.023438 430.460938 140.800781 C 429.445312 142.894531 427.765625 143.945312 425.421875 143.945312 C 424.410156 143.945312 423.589844 143.710938 422.964844 143.246094 C 422.339844 142.78125 421.910156 142.3125 421.675781 141.847656 C 421.441406 141.382812 421.363281 140.992188 421.441406 140.683594 C 421.441406 139.671875 422.925781 133.304688 425.890625 121.582031 C 428.9375 109.625 430.460938 103.375 430.460938 102.832031 C 430.695312 101.664062 430.8125 100.617188 430.8125 99.6875 C 430.8125 96.890625 429.835938 95.492188 427.882812 95.492188 C 426.164062 95.492188 424.722656 96.578125 423.550781 98.753906 C 422.378906 100.929688 421.480469 103.296875 420.855469 105.859375 C 420.230469 108.421875 419.761719 109.820312 419.449219 110.050781 C 419.292969 110.207031 418.667969 110.285156 417.578125 110.285156 L 415.9375 110.285156 C 415.46875 109.820312 415.234375 109.46875 415.234375 109.234375 Z M 415.234375 109.234375 " fill-opacity="1" fill-rule="nonzero"/></g><path fill="#000000" d="M 589.394531 139.285156 C 589.394531 140.839844 588.574219 141.613281 586.9375 141.613281 C 586.546875 141.613281 585.6875 140.992188 584.359375 139.75 C 583.03125 138.507812 579.363281 134.898438 573.351562 128.917969 L 561.167969 116.804688 L 548.871094 129.035156 C 540.59375 137.109375 536.339844 141.226562 536.105469 141.382812 C 535.792969 141.535156 535.519531 141.613281 535.285156 141.613281 C 534.660156 141.613281 534.113281 141.382812 533.644531 140.914062 C 533.175781 140.449219 532.902344 139.90625 532.824219 139.285156 C 532.824219 138.742188 533.371094 137.886719 534.464844 136.722656 C 535.558594 135.558594 539.226562 131.871094 545.476562 125.660156 L 557.65625 113.546875 L 545.476562 101.433594 C 539.148438 95.144531 535.480469 91.453125 534.464844 90.367188 C 533.449219 89.28125 532.902344 88.425781 532.824219 87.804688 C 532.824219 87.105469 533.058594 86.5625 533.527344 86.175781 C 533.996094 85.785156 534.582031 85.59375 535.285156 85.59375 C 535.675781 85.59375 535.949219 85.632812 536.105469 85.710938 C 536.339844 85.863281 540.59375 89.980469 548.871094 98.054688 L 561.167969 110.285156 L 573.351562 98.171875 C 579.363281 92.191406 583.03125 88.582031 584.359375 87.339844 C 585.6875 86.097656 586.546875 85.476562 586.9375 85.476562 C 588.574219 85.476562 589.394531 86.253906 589.394531 87.804688 C 589.394531 88.347656 589.003906 89.046875 588.226562 89.902344 C 587.445312 90.757812 583.617188 94.5625 576.746094 101.316406 L 564.566406 113.546875 L 576.746094 125.773438 C 583.304688 132.296875 587.054688 136.0625 587.992188 137.074219 C 588.925781 138.082031 589.394531 138.820312 589.394531 139.285156 Z M 589.394531 139.285156 " fill-opacity="1" fill-rule="nonzero"/><g clip-path="url(#e393227e24)"><path fill="#000000" d="M 609.191406 109.234375 C 609.269531 108.769531 609.386719 108.148438 609.542969 107.371094 C 609.695312 106.597656 610.164062 105.121094 610.945312 102.945312 C 611.726562 100.773438 612.507812 98.949219 613.289062 97.472656 C 614.070312 95.996094 615.359375 94.5625 617.152344 93.164062 C 618.949219 91.765625 620.746094 91.105469 622.542969 91.183594 C 625.351562 91.183594 627.695312 91.882812 629.570312 93.28125 C 631.441406 94.675781 632.613281 95.996094 633.082031 97.238281 C 633.550781 98.480469 633.785156 99.296875 633.785156 99.6875 C 633.785156 99.839844 633.824219 99.917969 633.902344 99.917969 L 635.191406 98.636719 C 639.953125 93.667969 645.378906 91.183594 651.472656 91.183594 C 655.6875 91.183594 659.085938 92.230469 661.660156 94.328125 C 664.238281 96.425781 665.566406 99.492188 665.644531 103.527344 C 665.722656 107.566406 664.238281 113.660156 661.191406 121.816406 C 658.148438 129.96875 656.664062 134.898438 656.742188 136.605469 C 656.742188 138.625 657.40625 139.632812 658.734375 139.632812 C 659.203125 139.632812 659.550781 139.597656 659.785156 139.519531 C 662.050781 139.128906 664.082031 137.65625 665.878906 135.09375 C 667.671875 132.53125 669.039062 129.425781 669.976562 125.773438 C 670.132812 125.152344 670.914062 124.84375 672.320312 124.84375 C 673.878906 124.84375 674.660156 125.152344 674.660156 125.773438 C 674.660156 125.851562 674.503906 126.433594 674.191406 127.523438 C 673.570312 129.773438 672.710938 131.988281 671.617188 134.160156 C 670.523438 136.335938 668.726562 138.507812 666.230469 140.683594 C 663.730469 142.855469 661.035156 143.90625 658.148438 143.828125 C 654.476562 143.828125 651.824219 142.78125 650.183594 140.683594 C 648.542969 138.585938 647.722656 136.414062 647.722656 134.160156 C 647.722656 132.683594 649.128906 128.027344 651.941406 120.183594 C 654.75 112.34375 656.195312 106.441406 656.273438 102.480469 C 656.273438 97.898438 654.554688 95.609375 651.121094 95.609375 L 650.535156 95.609375 C 643.820312 95.609375 638.15625 99.53125 633.550781 107.371094 L 632.730469 108.769531 L 628.867188 124.378906 C 626.289062 134.546875 624.804688 140.023438 624.414062 140.800781 C 623.402344 142.894531 621.722656 143.945312 619.378906 143.945312 C 618.363281 143.945312 617.542969 143.710938 616.917969 143.246094 C 616.296875 142.78125 615.867188 142.3125 615.632812 141.847656 C 615.398438 141.382812 615.320312 140.992188 615.398438 140.683594 C 615.398438 139.671875 616.878906 133.34375 619.847656 121.699219 C 622.816406 110.050781 624.375 103.722656 624.53125 102.714844 C 624.609375 102.324219 624.648438 101.433594 624.648438 100.035156 C 624.648438 97.007812 623.714844 95.492188 621.839844 95.492188 C 618.871094 95.492188 616.414062 99.375 614.460938 107.140625 C 613.992188 108.691406 613.757812 109.507812 613.757812 109.585938 C 613.601562 110.050781 612.859375 110.285156 611.53125 110.285156 L 609.890625 110.285156 C 609.425781 109.820312 609.191406 109.46875 609.191406 109.234375 Z M 609.191406 109.234375 " fill-opacity="1" fill-rule="nonzero"/></g><path fill="#000000" d="M 75.398438 798.53125 C 74.992188 798.128906 74.675781 797.871094 74.441406 797.753906 C 74.210938 797.640625 73.75 797.554688 73.054688 797.496094 C 72.363281 797.4375 71.121094 797.351562 69.328125 797.238281 L 66.464844 797.238281 L 66.464844 793.265625 L 67.417969 793.265625 C 68.632812 793.4375 72.796875 793.523438 79.90625 793.523438 C 87.710938 793.523438 91.871094 793.4375 92.390625 793.265625 L 93.34375 793.265625 L 93.34375 797.238281 L 91.4375 797.238281 C 86.929688 797.238281 84.617188 797.726562 84.5 798.707031 C 84.445312 798.820312 84.414062 803.371094 84.414062 812.351562 L 84.5 825.738281 L 97.160156 813.472656 C 99.820312 810.882812 102.710938 808.089844 105.832031 805.097656 C 108.085938 802.910156 109.386719 801.613281 109.734375 801.210938 C 110.078125 800.808594 110.28125 800.347656 110.339844 799.828125 L 110.339844 799.742188 C 110.339844 798.476562 109.53125 797.667969 107.914062 797.324219 C 107.796875 797.324219 107.652344 797.324219 107.480469 797.324219 C 107.304688 797.324219 107.160156 797.292969 107.046875 797.238281 L 106.699219 797.238281 L 106.699219 793.265625 L 107.566406 793.265625 C 108.605469 793.4375 112.390625 793.523438 118.925781 793.523438 C 123.203125 793.523438 125.6875 793.4375 126.382812 793.265625 L 126.902344 793.265625 L 126.902344 797.238281 L 125.6875 797.238281 C 121.351562 797.46875 117.914062 798.617188 115.367188 800.691406 C 115.078125 800.980469 112.363281 803.597656 107.21875 808.550781 C 102.074219 813.503906 99.5 816.007812 99.5 816.066406 C 99.5 816.125 102.652344 820.875 108.953125 830.316406 C 115.253906 839.757812 118.605469 844.769531 119.011719 845.34375 C 119.761719 846.496094 120.65625 847.246094 121.699219 847.589844 C 122.738281 847.933594 124.269531 848.164062 126.292969 848.28125 L 128.113281 848.28125 L 128.113281 852.253906 L 127.421875 852.253906 C 126.902344 852.082031 123.636719 851.996094 117.625 851.996094 C 110.570312 851.996094 106.4375 852.082031 105.222656 852.253906 L 104.269531 852.253906 L 104.269531 848.28125 L 104.964844 848.28125 C 107.625 848.28125 108.953125 847.53125 108.953125 846.035156 C 108.953125 845.691406 108.867188 845.34375 108.691406 845 L 93.433594 821.9375 C 93.199219 822.109375 91.523438 823.695312 88.402344 826.6875 L 84.414062 830.574219 L 84.414062 838.78125 C 84.414062 844.191406 84.5 847.015625 84.675781 847.246094 C 85.136719 847.878906 87.074219 848.222656 90.484375 848.28125 L 93.34375 848.28125 L 93.34375 852.253906 L 92.390625 852.253906 C 91.175781 852.082031 87.015625 851.996094 79.90625 851.996094 C 72.101562 851.996094 67.941406 852.082031 67.417969 852.253906 L 66.464844 852.253906 L 66.464844 848.28125 L 69.328125 848.28125 C 71.753906 848.222656 73.230469 848.136719 73.75 848.023438 C 74.269531 847.90625 74.820312 847.5625 75.398438 846.984375 Z M 75.398438 798.53125 " fill-opacity="1" fill-rule="nonzero"/><path fill="#000000" d="M 134.183594 833.425781 C 134.183594 830.257812 134.761719 827.378906 135.917969 824.789062 C 137.074219 822.199219 138.519531 820.097656 140.253906 818.484375 C 141.988281 816.871094 143.867188 815.664062 145.890625 814.855469 C 147.914062 814.050781 149.820312 813.617188 151.613281 813.5625 C 154.675781 813.5625 157.304688 814.078125 159.503906 815.117188 C 161.699219 816.152344 163.375 817.589844 164.53125 819.433594 C 165.6875 821.277344 166.496094 823.117188 166.960938 824.960938 C 167.421875 826.804688 167.683594 828.847656 167.742188 831.09375 C 167.742188 831.496094 167.539062 831.898438 167.132812 832.304688 L 142.683594 832.304688 L 142.683594 833.597656 C 142.683594 842.121094 145.570312 847.300781 151.351562 849.144531 C 152.507812 849.488281 153.78125 849.664062 155.167969 849.664062 C 157.59375 849.664062 159.675781 848.742188 161.410156 846.898438 C 162.394531 845.921875 163.171875 844.710938 163.75 843.273438 L 164.617188 841.199219 C 164.792969 841.027344 165.253906 840.941406 166.007812 840.941406 L 166.265625 840.941406 C 167.25 840.941406 167.742188 841.226562 167.742188 841.804688 C 167.742188 842.035156 167.652344 842.40625 167.480469 842.925781 C 166.382812 846.09375 164.5625 848.597656 162.019531 850.441406 C 159.472656 852.28125 156.613281 853.203125 153.433594 853.203125 C 147.941406 853.203125 143.375 851.21875 139.734375 847.246094 C 136.09375 843.273438 134.242188 838.664062 134.183594 833.425781 Z M 160.628906 828.503906 C 159.996094 821.132812 157.25 817.21875 152.394531 816.757812 L 152.21875 816.757812 C 151.757812 816.757812 151.292969 816.785156 150.832031 816.84375 C 150.371094 816.898438 149.648438 817.128906 148.664062 817.535156 C 147.683594 817.9375 146.84375 818.542969 146.148438 819.347656 C 145.457031 820.152344 144.792969 821.332031 144.15625 822.886719 C 143.519531 824.441406 143.058594 826.34375 142.769531 828.589844 L 142.769531 829.195312 L 160.628906 829.195312 Z M 160.628906 828.503906 " fill-opacity="1" fill-rule="nonzero"/><path fill="#000000" d="M 173.375 848.28125 L 174.589844 848.28125 C 176.84375 848.28125 178.203125 847.878906 178.664062 847.070312 L 178.664062 846.382812 C 178.664062 845.863281 178.664062 845.199219 178.664062 844.394531 C 178.664062 843.589844 178.695312 842.695312 178.753906 841.71875 C 178.808594 840.738281 178.808594 839.617188 178.753906 838.347656 C 178.695312 837.082031 178.695312 835.871094 178.753906 834.722656 C 178.753906 832.9375 178.753906 831.035156 178.753906 829.019531 C 178.753906 827.003906 178.753906 825.308594 178.753906 823.925781 L 178.664062 821.9375 C 178.492188 820.84375 178.085938 820.125 177.453125 819.78125 C 176.816406 819.433594 175.515625 819.175781 173.550781 819.003906 L 171.988281 819.003906 L 171.988281 817.015625 C 171.988281 815.691406 172.046875 815.027344 172.164062 815.027344 L 173.03125 814.941406 C 173.609375 814.886719 174.417969 814.828125 175.457031 814.769531 C 176.496094 814.710938 177.539062 814.65625 178.578125 814.597656 C 179.503906 814.539062 180.515625 814.480469 181.613281 814.425781 C 182.710938 814.367188 183.550781 814.28125 184.128906 814.164062 C 184.707031 814.050781 185.023438 814.019531 185.082031 814.078125 L 185.34375 814.078125 L 185.34375 820.039062 C 187.597656 816.125 190.398438 814.164062 193.753906 814.164062 L 194.273438 814.164062 C 196.875 814.164062 198.78125 814.796875 199.996094 816.066406 C 201.210938 817.332031 201.816406 818.65625 201.816406 820.039062 C 201.816406 821.246094 201.441406 822.285156 200.6875 823.148438 C 199.9375 824.011719 198.839844 824.441406 197.394531 824.441406 C 195.949219 824.441406 194.878906 823.984375 194.1875 823.0625 C 193.492188 822.140625 193.117188 821.160156 193.058594 820.125 C 193.058594 819.605469 193.117188 819.144531 193.230469 818.742188 C 193.347656 818.339844 193.492188 817.996094 193.664062 817.707031 C 193.839844 817.417969 193.925781 817.273438 193.925781 817.273438 C 193.808594 817.160156 193.144531 817.273438 191.933594 817.621094 C 191.007812 818.082031 190.3125 818.511719 189.851562 818.914062 C 187.132812 821.507812 185.777344 826.660156 185.777344 834.375 L 185.777344 838.953125 C 185.777344 839.703125 185.777344 840.480469 185.777344 841.285156 C 185.777344 842.089844 185.777344 842.839844 185.777344 843.53125 C 185.777344 844.222656 185.804688 844.796875 185.863281 845.257812 C 185.921875 845.71875 185.921875 846.152344 185.863281 846.554688 L 185.863281 846.984375 C 185.921875 847.101562 186.007812 847.214844 186.121094 847.332031 C 186.238281 847.445312 186.382812 847.53125 186.554688 847.589844 C 186.730469 847.648438 186.875 847.734375 186.988281 847.847656 C 187.105469 847.964844 187.308594 848.023438 187.597656 848.023438 C 187.886719 848.023438 188.085938 848.050781 188.203125 848.109375 C 188.320312 848.164062 188.578125 848.195312 188.984375 848.195312 C 189.386719 848.195312 189.648438 848.195312 189.765625 848.195312 C 189.878906 848.195312 190.167969 848.222656 190.632812 848.28125 C 191.09375 848.339844 191.382812 848.339844 191.5 848.28125 L 194.1875 848.28125 L 194.1875 852.253906 L 193.40625 852.253906 C 192.363281 852.082031 188.695312 851.996094 182.394531 851.996094 C 176.441406 851.996094 173.203125 852.082031 172.683594 852.253906 L 171.988281 852.253906 L 171.988281 848.28125 Z M 173.375 848.28125 " fill-opacity="1" fill-rule="nonzero"/><g clip-path="url(#148f856d66)"><path fill="#000000" d="M 212.394531 830.660156 C 212.394531 826.6875 212.683594 822.917969 213.261719 819.347656 C 213.839844 815.777344 214.503906 812.695312 215.257812 810.105469 C 216.007812 807.515625 217.078125 804.980469 218.464844 802.503906 C 219.851562 800.03125 220.949219 798.101562 221.757812 796.71875 C 222.566406 795.335938 223.78125 793.839844 225.402344 792.226562 C 227.019531 790.617188 227.972656 789.636719 228.261719 789.292969 C 228.550781 788.945312 229.273438 788.339844 230.429688 787.476562 L 231.902344 787.476562 C 232.714844 787.476562 233.117188 787.738281 233.117188 788.253906 C 233.117188 788.425781 232.625 789.03125 231.644531 790.070312 C 230.660156 791.105469 229.476562 792.628906 228.089844 794.644531 C 226.703125 796.660156 225.285156 799.136719 223.839844 802.074219 C 222.394531 805.011719 221.179688 808.984375 220.199219 813.992188 C 219.214844 819.003906 218.722656 824.558594 218.722656 830.660156 C 218.722656 836.765625 219.214844 842.292969 220.199219 847.246094 C 221.179688 852.195312 222.367188 856.199219 223.753906 859.25 C 225.140625 862.300781 226.558594 864.777344 228 866.675781 C 229.445312 868.578125 230.660156 870.101562 231.644531 871.253906 C 232.625 872.40625 233.117188 873.011719 233.117188 873.070312 C 233.117188 873.585938 232.683594 873.847656 231.816406 873.847656 L 230.429688 873.847656 L 228 871.773438 C 222.566406 866.878906 218.609375 860.777344 216.121094 853.464844 C 213.636719 846.152344 212.394531 838.550781 212.394531 830.660156 Z M 212.394531 830.660156 " fill-opacity="1" fill-rule="nonzero"/></g><path fill="#000000" d="M 256.007812 845.863281 C 256.007812 847.246094 257.339844 848.050781 259.996094 848.28125 C 261.039062 848.28125 261.558594 848.597656 261.558594 849.230469 C 261.558594 849.289062 261.5 849.664062 261.382812 850.355469 C 261.210938 851.160156 261.039062 851.679688 260.863281 851.910156 C 260.691406 852.140625 260.316406 852.253906 259.738281 852.253906 C 259.621094 852.253906 259.273438 852.253906 258.695312 852.253906 C 258.117188 852.253906 257.136719 852.226562 255.75 852.167969 C 254.359375 852.109375 252.511719 852.082031 250.199219 852.082031 C 246.09375 852.082031 243.464844 852.140625 242.308594 852.253906 L 241.613281 852.253906 C 241.210938 851.851562 241.007812 851.535156 241.007812 851.304688 C 241.125 849.75 241.5 848.742188 242.136719 848.28125 L 243.347656 848.28125 C 247.394531 848.109375 250.34375 846.667969 252.191406 843.960938 C 252.539062 843.617188 257.769531 834.835938 267.886719 817.621094 C 278.003906 800.402344 283.148438 791.679688 283.320312 791.449219 C 283.726562 790.757812 284.417969 790.414062 285.402344 790.414062 L 287.570312 790.414062 C 287.917969 790.933594 288.089844 791.21875 288.089844 791.277344 L 290.519531 819.175781 C 292.136719 837.773438 293.003906 847.15625 293.121094 847.332031 C 293.40625 847.964844 295.285156 848.28125 298.753906 848.28125 C 300.199219 848.28125 300.921875 848.570312 300.921875 849.144531 C 300.921875 849.261719 300.835938 849.664062 300.664062 850.355469 C 300.488281 851.21875 300.34375 851.734375 300.230469 851.910156 C 300.113281 852.082031 299.707031 852.195312 299.015625 852.253906 C 298.84375 852.253906 298.4375 852.253906 297.800781 852.253906 C 297.164062 852.253906 296.039062 852.226562 294.417969 852.167969 C 292.800781 852.109375 290.691406 852.082031 288.089844 852.082031 C 282.65625 852.082031 279.101562 852.140625 277.425781 852.253906 L 276.382812 852.253906 C 276.039062 851.910156 275.863281 851.648438 275.863281 851.476562 C 275.863281 851.304688 275.921875 850.785156 276.039062 849.921875 C 276.269531 849.171875 276.441406 848.710938 276.558594 848.539062 L 276.90625 848.28125 L 278.640625 848.28125 C 281.761719 848.109375 283.609375 847.617188 284.1875 846.8125 L 283.148438 833.859375 L 262.511719 833.859375 L 259.5625 838.867188 C 257.195312 842.839844 256.007812 845.171875 256.007812 845.863281 Z M 282.714844 829.796875 C 282.714844 829.164062 282.367188 824.671875 281.671875 816.324219 C 280.980469 807.976562 280.574219 803.773438 280.460938 803.714844 L 278.117188 807.429688 C 277.195312 808.984375 275.371094 812.0625 272.65625 816.671875 L 264.851562 829.796875 L 273.785156 829.882812 C 279.738281 829.882812 282.714844 829.855469 282.714844 829.796875 Z M 282.714844 829.796875 " fill-opacity="1" fill-rule="nonzero"/><g clip-path="url(#0068030870)"><path fill="#000000" d="M 308.207031 787.5625 L 308.554688 787.476562 C 308.84375 787.476562 309.132812 787.476562 309.421875 787.476562 L 310.460938 787.476562 L 312.886719 789.550781 C 318.320312 794.445312 322.28125 800.546875 324.765625 807.859375 C 327.253906 815.171875 328.496094 822.773438 328.496094 830.660156 C 328.496094 834.578125 328.207031 838.347656 327.628906 841.976562 C 327.050781 845.605469 326.386719 848.683594 325.632812 851.21875 C 324.882812 853.75 323.8125 856.285156 322.425781 858.816406 C 321.039062 861.351562 319.941406 863.28125 319.132812 864.605469 C 318.320312 865.929688 317.136719 867.398438 315.578125 869.007812 C 314.015625 870.621094 313.089844 871.570312 312.800781 871.859375 C 312.511719 872.148438 311.847656 872.695312 310.808594 873.5 C 310.632812 873.671875 310.519531 873.789062 310.460938 873.847656 L 309.421875 873.847656 C 308.957031 873.847656 308.640625 873.847656 308.464844 873.847656 C 308.292969 873.847656 308.148438 873.757812 308.03125 873.585938 C 307.917969 873.414062 307.832031 873.15625 307.773438 872.808594 C 307.832031 872.753906 308.148438 872.378906 308.726562 871.6875 C 317.6875 862.417969 322.167969 848.742188 322.167969 830.660156 C 322.167969 812.582031 317.6875 798.90625 308.726562 789.636719 C 308.148438 788.945312 307.832031 788.570312 307.773438 788.515625 C 307.773438 788.054688 307.917969 787.738281 308.207031 787.5625 Z M 308.207031 787.5625 " fill-opacity="1" fill-rule="nonzero"/></g><g clip-path="url(#cf173e755e)"><g clip-path="url(#ee0c0d895e)"><path fill="#c1ff72" d="M 591.273438 481.722656 L 941.589844 481.722656 L 941.589844 1179.625 L 591.273438 1179.625 Z M 591.273438 481.722656 " fill-opacity="1" fill-rule="nonzero"/></g></g><g clip-path="url(#47bf079461)"><g clip-path="url(#f03601274b)"><path stroke-linecap="butt" transform="matrix(0.749728, 0, 0, 0.749728, 591.271941, 481.729804)" fill="none" stroke-linejoin="miter" d="M 233.623178 0.000886815 C 104.59722 0.000886815 0.00199671 208.368118 0.00199671 465.409252 C 0.00199671 722.445175 104.59722 930.812407 233.623178 930.812407 C 362.654347 930.812407 467.24957 722.445175 467.24957 465.409252 C 467.24957 208.368118 362.654347 0.000886815 233.623178 0.000886815 Z M 233.623178 0.000886815 " stroke="#000000" stroke-width="12" stroke-opacity="1" stroke-miterlimit="4"/></g></g><path fill="#000000" d="M 686.230469 1026.015625 C 685 1025.84375 680.664062 1025.757812 673.21875 1025.757812 C 665.773438 1025.757812 661.433594 1025.84375 660.203125 1026.015625 L 659.234375 1026.015625 L 659.234375 1022.042969 L 661.167969 1022.042969 C 664.042969 1022.042969 665.890625 1021.957031 666.710938 1021.78125 C 667.53125 1021.609375 668.117188 1021.292969 668.46875 1020.832031 C 668.585938 1020.660156 668.644531 1012.542969 668.644531 996.476562 C 668.644531 980.46875 668.585938 972.378906 668.46875 972.207031 C 668.234375 971.917969 668 971.71875 667.765625 971.601562 C 667.53125 971.488281 666.886719 971.34375 665.832031 971.171875 C 664.773438 971 663.222656 970.941406 661.167969 971 L 659.234375 971 L 659.234375 967.023438 L 660.203125 967.023438 C 661.433594 967.199219 665.773438 967.285156 673.21875 967.285156 C 680.664062 967.285156 685 967.199219 686.230469 967.023438 L 687.199219 967.023438 L 687.199219 971 L 685.265625 971 C 682.390625 971 680.546875 971.085938 679.722656 971.257812 C 678.902344 971.429688 678.316406 971.746094 677.964844 972.207031 C 677.847656 972.378906 677.789062 980.46875 677.789062 996.476562 C 677.789062 1012.542969 677.847656 1020.660156 677.964844 1020.832031 C 678.199219 1021.121094 678.433594 1021.324219 678.667969 1021.4375 C 678.902344 1021.550781 679.546875 1021.695312 680.605469 1021.871094 C 681.660156 1022.042969 683.210938 1022.097656 685.265625 1022.042969 L 687.199219 1022.042969 L 687.199219 1026.015625 Z M 686.230469 1026.015625 " fill-opacity="1" fill-rule="nonzero"/><path fill="#000000" d="M 692.738281 1022.042969 L 693.96875 1022.042969 C 696.257812 1022.042969 697.636719 1021.640625 698.105469 1020.832031 L 698.105469 1020.140625 C 698.105469 1019.625 698.105469 1018.960938 698.105469 1018.15625 C 698.105469 1017.347656 698.105469 1016.457031 698.105469 1015.476562 C 698.105469 1014.5 698.132812 1013.375 698.191406 1012.109375 C 698.25 1010.84375 698.25 1009.632812 698.191406 1008.480469 C 698.191406 1006.695312 698.191406 1004.796875 698.191406 1002.78125 C 698.191406 1000.765625 698.164062 999.066406 698.105469 997.6875 L 698.105469 995.699219 C 697.929688 994.605469 697.515625 993.886719 696.871094 993.539062 C 696.226562 993.195312 694.910156 992.9375 692.914062 992.761719 L 691.332031 992.761719 L 691.332031 990.777344 C 691.332031 989.453125 691.390625 988.789062 691.507812 988.789062 L 692.386719 988.703125 C 692.972656 988.644531 693.792969 988.589844 694.851562 988.53125 C 695.90625 988.472656 696.988281 988.414062 698.105469 988.359375 C 699.101562 988.300781 700.15625 988.242188 701.269531 988.183594 C 702.382812 988.128906 703.234375 988.042969 703.820312 987.925781 C 704.40625 987.8125 704.726562 987.78125 704.789062 987.839844 L 705.050781 987.839844 L 705.050781 991.292969 C 705.050781 993.484375 705.082031 994.578125 705.140625 994.578125 C 705.199219 994.578125 705.34375 994.433594 705.578125 994.144531 C 705.8125 993.855469 706.164062 993.425781 706.632812 992.847656 C 707.101562 992.273438 707.660156 991.753906 708.304688 991.292969 C 708.949219 990.835938 709.800781 990.289062 710.855469 989.652344 C 711.910156 989.019531 713.023438 988.558594 714.195312 988.273438 C 715.367188 987.984375 716.863281 987.839844 718.679688 987.839844 C 719.5625 987.839844 720.382812 987.898438 721.144531 988.011719 C 721.90625 988.128906 722.582031 988.300781 723.167969 988.53125 C 723.753906 988.761719 724.308594 988.992188 724.835938 989.222656 C 725.363281 989.453125 725.804688 989.710938 726.15625 990 C 726.507812 990.289062 726.832031 990.605469 727.125 990.949219 C 727.417969 991.292969 727.679688 991.613281 727.914062 991.898438 C 728.148438 992.1875 728.355469 992.503906 728.53125 992.847656 C 728.707031 993.195312 728.824219 993.484375 728.882812 993.714844 C 728.941406 993.945312 729.027344 994.171875 729.144531 994.402344 L 729.320312 994.835938 L 729.585938 994.492188 C 729.761719 994.261719 729.9375 994.03125 730.113281 993.800781 C 730.289062 993.570312 730.554688 993.253906 730.90625 992.847656 C 731.257812 992.445312 731.636719 992.070312 732.046875 991.726562 C 732.457031 991.382812 732.898438 991.007812 733.367188 990.605469 C 733.835938 990.199219 734.421875 989.855469 735.125 989.566406 C 735.828125 989.28125 736.503906 988.992188 737.148438 988.703125 C 737.792969 988.414062 738.554688 988.214844 739.433594 988.097656 C 740.316406 987.984375 741.222656 987.898438 742.160156 987.839844 C 749.546875 987.839844 753.5625 991.09375 754.207031 997.601562 C 754.265625 998.003906 754.296875 1002.003906 754.296875 1009.605469 L 754.296875 1017.03125 C 754.296875 1019.21875 754.355469 1020.515625 754.472656 1020.917969 C 754.589844 1021.324219 754.914062 1021.609375 755.441406 1021.78125 C 756.671875 1021.957031 758.109375 1022.042969 759.75 1022.042969 L 761.15625 1022.042969 L 761.15625 1026.015625 L 760.453125 1026.015625 L 758.429688 1025.929688 C 757.023438 1025.871094 755.527344 1025.84375 753.945312 1025.84375 C 752.363281 1025.84375 751.25 1025.8125 750.601562 1025.757812 C 744.566406 1025.757812 741.28125 1025.84375 740.753906 1026.015625 L 740.050781 1026.015625 L 740.050781 1022.042969 L 741.457031 1022.042969 C 745.035156 1022.042969 746.820312 1021.582031 746.820312 1020.660156 C 746.878906 1020.546875 746.910156 1016.570312 746.910156 1008.742188 C 746.851562 1000.96875 746.792969 996.851562 746.734375 996.390625 C 746.382812 994.777344 745.796875 993.570312 744.976562 992.761719 C 744.15625 991.957031 743.449219 991.46875 742.863281 991.292969 C 742.277344 991.121094 741.515625 991.0625 740.578125 991.121094 C 737.941406 991.121094 735.625 992.101562 733.632812 994.058594 C 732.046875 995.613281 731.050781 997.195312 730.640625 998.808594 C 730.230469 1000.421875 729.996094 1002.8125 729.9375 1005.976562 L 729.9375 1016.6875 C 729.9375 1018.414062 729.96875 1019.566406 730.027344 1020.140625 C 730.085938 1020.71875 730.171875 1021.09375 730.289062 1021.265625 C 730.40625 1021.4375 730.671875 1021.609375 731.082031 1021.78125 C 732.3125 1021.957031 733.75 1022.042969 735.390625 1022.042969 L 736.796875 1022.042969 L 736.796875 1026.015625 L 736.09375 1026.015625 L 733.984375 1025.929688 C 732.632812 1025.871094 731.167969 1025.84375 729.585938 1025.84375 C 728.003906 1025.84375 726.890625 1025.8125 726.246094 1025.757812 C 720.207031 1025.757812 716.921875 1025.84375 716.394531 1026.015625 L 715.691406 1026.015625 L 715.691406 1022.042969 L 717.097656 1022.042969 C 720.675781 1022.042969 722.460938 1021.582031 722.460938 1020.660156 C 722.523438 1020.546875 722.550781 1016.570312 722.550781 1008.742188 C 722.492188 1000.96875 722.433594 996.851562 722.375 996.390625 C 722.023438 994.777344 721.4375 993.570312 720.617188 992.761719 C 719.796875 991.957031 719.09375 991.46875 718.503906 991.292969 C 717.917969 991.121094 717.15625 991.0625 716.21875 991.121094 C 713.582031 991.121094 711.265625 992.101562 709.273438 994.058594 C 707.6875 995.613281 706.691406 997.195312 706.28125 998.808594 C 705.871094 1000.421875 705.636719 1002.8125 705.578125 1005.976562 L 705.578125 1016.6875 C 705.578125 1018.414062 705.609375 1019.566406 705.667969 1020.140625 C 705.726562 1020.71875 705.8125 1021.09375 705.929688 1021.265625 C 706.046875 1021.4375 706.3125 1021.609375 706.722656 1021.78125 C 707.953125 1021.957031 709.390625 1022.042969 711.03125 1022.042969 L 712.4375 1022.042969 L 712.4375 1026.015625 L 711.734375 1026.015625 L 709.710938 1025.929688 C 708.304688 1025.871094 706.808594 1025.84375 705.226562 1025.84375 C 703.644531 1025.84375 702.53125 1025.8125 701.886719 1025.757812 C 695.847656 1025.757812 692.5625 1025.84375 692.035156 1026.015625 L 691.332031 1026.015625 L 691.332031 1022.042969 Z M 692.738281 1022.042969 " fill-opacity="1" fill-rule="nonzero"/><g clip-path="url(#feaa7765ca)"><path fill="#000000" d="M 770.652344 1004.421875 C 770.652344 1000.449219 770.945312 996.679688 771.53125 993.109375 C 772.117188 989.539062 772.792969 986.457031 773.554688 983.867188 C 774.316406 981.277344 775.402344 978.742188 776.808594 976.265625 C 778.214844 973.789062 779.332031 971.863281 780.152344 970.480469 C 780.972656 969.097656 782.203125 967.601562 783.84375 965.988281 C 785.484375 964.375 786.453125 963.398438 786.746094 963.050781 C 787.039062 962.707031 787.773438 962.101562 788.945312 961.238281 L 790.441406 961.238281 C 791.261719 961.238281 791.671875 961.496094 791.671875 962.015625 C 791.671875 962.1875 791.171875 962.792969 790.175781 963.828125 C 789.179688 964.867188 787.976562 966.390625 786.570312 968.40625 C 785.164062 970.421875 783.726562 972.898438 782.261719 975.835938 C 780.796875 978.769531 779.566406 982.746094 778.566406 987.753906 C 777.570312 992.761719 777.074219 998.320312 777.074219 1004.421875 C 777.074219 1010.527344 777.570312 1016.054688 778.566406 1021.003906 C 779.566406 1025.957031 780.765625 1029.960938 782.171875 1033.011719 C 783.582031 1036.0625 785.015625 1038.539062 786.484375 1040.4375 C 787.949219 1042.339844 789.179688 1043.863281 790.175781 1045.015625 C 791.171875 1046.167969 791.671875 1046.773438 791.671875 1046.828125 C 791.671875 1047.347656 791.230469 1047.605469 790.351562 1047.605469 L 788.945312 1047.605469 L 786.484375 1045.535156 C 780.972656 1040.640625 776.957031 1034.535156 774.433594 1027.222656 C 771.914062 1019.910156 770.652344 1012.3125 770.652344 1004.421875 Z M 770.652344 1004.421875 " fill-opacity="1" fill-rule="nonzero"/></g><path fill="#000000" d="M 814.886719 1019.625 C 814.886719 1021.003906 816.234375 1021.8125 818.933594 1022.042969 C 819.988281 1022.042969 820.515625 1022.359375 820.515625 1022.992188 C 820.515625 1023.050781 820.457031 1023.425781 820.339844 1024.113281 C 820.164062 1024.921875 819.988281 1025.4375 819.8125 1025.667969 C 819.636719 1025.898438 819.253906 1026.015625 818.667969 1026.015625 C 818.550781 1026.015625 818.199219 1026.015625 817.613281 1026.015625 C 817.027344 1026.015625 816.03125 1025.984375 814.621094 1025.929688 C 813.214844 1025.871094 811.339844 1025.84375 808.996094 1025.84375 C 804.832031 1025.84375 802.164062 1025.898438 800.992188 1026.015625 L 800.289062 1026.015625 C 799.878906 1025.613281 799.671875 1025.296875 799.671875 1025.066406 C 799.789062 1023.511719 800.171875 1022.503906 800.816406 1022.042969 L 802.046875 1022.042969 C 806.152344 1021.871094 809.140625 1020.429688 811.015625 1017.722656 C 811.371094 1017.378906 816.675781 1008.597656 826.933594 991.382812 C 837.195312 974.164062 842.410156 965.441406 842.585938 965.210938 C 842.996094 964.519531 843.703125 964.175781 844.699219 964.175781 L 846.898438 964.175781 C 847.25 964.691406 847.425781 964.980469 847.425781 965.039062 L 849.886719 992.9375 C 851.527344 1011.535156 852.40625 1020.917969 852.523438 1021.09375 C 852.816406 1021.726562 854.722656 1022.042969 858.242188 1022.042969 C 859.707031 1022.042969 860.4375 1022.328125 860.4375 1022.90625 C 860.4375 1023.019531 860.351562 1023.425781 860.175781 1024.113281 C 860 1024.980469 859.851562 1025.496094 859.734375 1025.667969 C 859.617188 1025.84375 859.207031 1025.957031 858.503906 1026.015625 C 858.328125 1026.015625 857.917969 1026.015625 857.273438 1026.015625 C 856.628906 1026.015625 855.484375 1025.984375 853.84375 1025.929688 C 852.203125 1025.871094 850.0625 1025.84375 847.425781 1025.84375 C 841.914062 1025.84375 838.308594 1025.898438 836.609375 1026.015625 L 835.550781 1026.015625 C 835.199219 1025.667969 835.023438 1025.410156 835.023438 1025.238281 C 835.023438 1025.066406 835.082031 1024.546875 835.199219 1023.683594 C 835.433594 1022.933594 835.609375 1022.472656 835.726562 1022.300781 L 836.078125 1022.042969 L 837.839844 1022.042969 C 841.003906 1021.871094 842.878906 1021.378906 843.46875 1020.574219 L 842.410156 1007.617188 L 821.480469 1007.617188 L 818.492188 1012.628906 C 816.089844 1016.601562 814.886719 1018.933594 814.886719 1019.625 Z M 841.972656 1003.558594 C 841.972656 1002.925781 841.621094 998.433594 840.917969 990.085938 C 840.214844 981.738281 839.804688 977.535156 839.6875 977.476562 L 837.3125 981.191406 C 836.375 982.746094 834.527344 985.824219 831.769531 990.429688 L 823.855469 1003.558594 L 832.914062 1003.644531 C 838.953125 1003.644531 841.972656 1003.617188 841.972656 1003.558594 Z M 841.972656 1003.558594 " fill-opacity="1" fill-rule="nonzero"/><g clip-path="url(#13ff86f495)"><path fill="#000000" d="M 867.824219 961.324219 L 868.179688 961.238281 C 868.472656 961.238281 868.765625 961.238281 869.058594 961.238281 L 870.113281 961.238281 L 872.574219 963.3125 C 878.085938 968.207031 882.101562 974.308594 884.621094 981.621094 C 887.144531 988.933594 888.402344 996.535156 888.402344 1004.421875 C 888.402344 1008.339844 888.109375 1012.109375 887.523438 1015.738281 C 886.9375 1019.363281 886.265625 1022.445312 885.5 1024.980469 C 884.738281 1027.511719 883.65625 1030.046875 882.25 1032.578125 C 880.839844 1035.113281 879.726562 1037.042969 878.90625 1038.367188 C 878.085938 1039.691406 876.882812 1041.160156 875.300781 1042.769531 C 873.71875 1044.382812 872.78125 1045.332031 872.488281 1045.621094 C 872.195312 1045.910156 871.519531 1046.457031 870.464844 1047.261719 C 870.289062 1047.433594 870.171875 1047.550781 870.113281 1047.605469 L 869.058594 1047.605469 C 868.589844 1047.605469 868.265625 1047.605469 868.089844 1047.605469 C 867.914062 1047.605469 867.765625 1047.519531 867.648438 1047.347656 C 867.53125 1047.175781 867.445312 1046.917969 867.386719 1046.570312 C 867.445312 1046.511719 867.765625 1046.140625 868.355469 1045.449219 C 877.441406 1036.175781 881.984375 1022.503906 881.984375 1004.421875 C 881.984375 986.34375 877.441406 972.667969 868.355469 963.398438 C 867.765625 962.707031 867.445312 962.332031 867.386719 962.273438 C 867.386719 961.8125 867.53125 961.496094 867.824219 961.324219 Z M 867.824219 961.324219 " fill-opacity="1" fill-rule="nonzero"/></g><g clip-path="url(#6d7052ae4d)"><g clip-path="url(#a13c411222)"><path fill="#000000" d="M 757.949219 813.699219 L 774.914062 813.699219 L 774.914062 830.660156 L 757.949219 830.660156 Z M 757.949219 813.699219 " fill-opacity="1" fill-rule="nonzero"/></g></g><path stroke-linecap="butt" transform="matrix(0.665874, 0.344533, -0.344533, 0.665874, 233.162008, 203.270783)" fill="none" stroke-linejoin="miter" d="M 0.00128017 3.001027 L 802.407067 3.003252 " stroke="#000000" stroke-width="6" stroke-opacity="1" stroke-miterlimit="4"/><g clip-path="url(#4fa79b0daf)"><path stroke-linecap="butt" transform="matrix(0.706472, -0.250977, 0.250977, 0.706472, 231.375532, 1367.293031)" fill="none" stroke-linejoin="miter" d="M -0.000164287 3.002228 L 756.295954 2.99742 " stroke="#000000" stroke-width="6" stroke-opacity="1" stroke-miterlimit="4"/></g><path fill="#000000" d="M 252.210938 486.523438 L 255.988281 488.96875 L 253.542969 492.746094 L 249.765625 490.300781 M 259.761719 491.414062 L 263.539062 493.859375 L 261.09375 497.636719 L 257.316406 495.191406 M 267.316406 496.304688 L 271.089844 498.75 L 268.644531 502.527344 L 264.871094 500.082031 M 274.867188 501.195312 L 278.644531 503.640625 L 276.199219 507.414062 L 272.421875 504.972656 M 282.417969 506.085938 L 286.195312 508.53125 L 283.75 512.304688 L 279.972656 509.859375 M 289.96875 510.976562 L 293.746094 513.421875 L 291.300781 517.195312 L 287.523438 514.75 M 297.523438 515.863281 L 301.296875 518.308594 L 298.851562 522.085938 L 295.078125 519.640625 M 305.074219 520.753906 L 308.851562 523.199219 L 306.40625 526.976562 L 302.628906 524.53125 M 312.625 525.644531 L 316.402344 528.089844 L 313.957031 531.867188 L 310.179688 529.421875 M 320.175781 530.535156 L 323.953125 532.980469 L 321.507812 536.757812 L 317.730469 534.3125 M 327.730469 535.425781 L 331.503906 537.871094 L 329.058594 541.644531 L 325.285156 539.199219 M 335.28125 540.316406 L 339.054688 542.761719 L 336.613281 546.535156 L 332.835938 544.089844 M 342.832031 545.207031 L 346.609375 547.648438 L 344.164062 551.425781 L 340.386719 548.980469 M 350.382812 550.09375 L 354.160156 552.539062 L 351.714844 556.316406 L 347.9375 553.871094 M 357.9375 554.984375 L 361.710938 557.429688 L 359.265625 561.207031 L 355.492188 558.761719 M 365.488281 559.875 L 369.261719 562.320312 L 366.820312 566.097656 L 363.042969 563.652344 M 373.039062 564.765625 L 376.816406 567.210938 L 374.371094 570.988281 L 370.59375 568.542969 M 380.589844 569.65625 L 384.367188 572.101562 L 381.921875 575.875 L 378.144531 573.429688 M 388.144531 574.546875 L 391.917969 576.992188 L 389.472656 580.765625 L 385.699219 578.320312 M 395.695312 579.4375 L 399.46875 581.878906 L 397.027344 585.65625 L 393.25 583.210938 M 403.246094 584.324219 L 407.023438 586.769531 L 404.578125 590.546875 L 400.800781 588.101562 M 410.796875 589.214844 L 414.574219 591.660156 L 412.128906 595.4375 L 408.351562 592.992188 M 418.351562 594.105469 L 422.125 596.550781 L 419.679688 600.328125 L 415.90625 597.882812 M 425.902344 598.996094 L 429.675781 601.441406 L 427.234375 605.214844 L 423.457031 602.773438 M 433.453125 603.886719 L 437.230469 606.332031 L 434.785156 610.105469 L 431.007812 607.660156 M 441.003906 608.777344 L 444.78125 611.222656 L 442.335938 614.996094 L 438.558594 612.550781 M 448.558594 613.664062 L 452.332031 616.109375 L 449.886719 619.886719 L 446.113281 617.441406 M 456.109375 618.554688 L 459.882812 621 L 457.4375 624.777344 L 453.664062 622.332031 M 463.660156 623.445312 L 467.4375 625.890625 L 464.992188 629.667969 L 461.214844 627.222656 M 471.210938 628.335938 L 474.988281 630.78125 L 472.542969 634.558594 L 468.765625 632.113281 M 478.765625 633.226562 L 482.539062 635.671875 L 480.09375 639.445312 L 476.320312 637 M 486.316406 638.117188 L 490.089844 640.5625 L 487.644531 644.335938 L 483.871094 641.890625 M 493.867188 643.007812 L 497.644531 645.449219 L 495.199219 649.226562 L 491.421875 646.78125 M 501.417969 647.894531 L 505.195312 650.339844 L 502.75 654.117188 L 498.972656 651.671875 M 508.972656 652.785156 L 512.746094 655.230469 L 510.300781 659.007812 L 506.527344 656.5625 M 516.523438 657.675781 L 520.296875 660.121094 L 517.851562 663.898438 L 514.078125 661.453125 M 524.074219 662.566406 L 527.851562 665.011719 L 525.40625 668.789062 L 521.628906 666.34375 M 531.625 667.457031 L 535.402344 669.902344 L 532.957031 673.675781 L 529.179688 671.230469 M 539.175781 672.347656 L 542.953125 674.792969 L 540.507812 678.566406 L 536.734375 676.121094 M 546.730469 677.238281 L 550.503906 679.679688 L 548.058594 683.457031 L 544.285156 681.011719 M 554.28125 682.125 L 558.058594 684.570312 L 555.613281 688.347656 L 551.835938 685.902344 M 561.832031 687.015625 L 565.609375 689.460938 L 563.164062 693.238281 L 559.386719 690.792969 M 569.382812 691.90625 L 573.160156 694.351562 L 570.714844 698.128906 L 566.941406 695.683594 M 576.9375 696.796875 L 580.710938 699.242188 L 578.265625 703.015625 L 574.492188 700.574219 M 584.488281 701.6875 L 588.265625 704.132812 L 585.820312 707.90625 L 582.042969 705.460938 M 592.039062 706.578125 L 595.816406 709.023438 L 593.371094 712.796875 L 589.59375 710.351562 M 599.589844 711.464844 L 603.367188 713.910156 L 600.921875 717.6875 L 597.148438 715.242188 M 607.144531 716.355469 L 610.917969 718.800781 L 608.472656 722.578125 L 604.699219 720.132812 M 614.695312 721.246094 L 618.472656 723.691406 L 616.027344 727.46875 L 612.25 725.023438 M 622.246094 726.136719 L 626.023438 728.582031 L 623.578125 732.359375 L 619.800781 729.914062 M 629.796875 731.027344 L 633.574219 733.472656 L 631.128906 737.246094 L 627.355469 734.800781 M 637.351562 735.917969 L 641.125 738.363281 L 638.679688 742.136719 L 634.90625 739.691406 M 644.902344 740.808594 L 648.679688 743.25 L 646.234375 747.027344 L 642.457031 744.582031 M 652.453125 745.695312 L 656.230469 748.140625 L 653.785156 751.917969 L 650.007812 749.472656 M 660.003906 750.585938 L 663.78125 753.03125 L 661.335938 756.808594 L 657.5625 754.363281 M 667.558594 755.476562 L 671.332031 757.921875 L 668.886719 761.699219 L 665.113281 759.253906 M 675.109375 760.367188 L 678.886719 762.8125 L 676.441406 766.589844 L 672.664062 764.144531 M 682.660156 765.257812 L 686.4375 767.703125 L 683.992188 771.476562 L 680.214844 769.03125 M 690.210938 770.148438 L 693.988281 772.59375 L 691.542969 776.367188 L 687.765625 773.921875 M 697.765625 775.039062 L 701.539062 777.480469 L 699.09375 781.257812 L 695.320312 778.8125 M 705.316406 779.925781 L 709.09375 782.371094 L 706.648438 786.148438 L 702.871094 783.703125 M 712.867188 784.816406 L 716.644531 787.261719 L 714.199219 791.039062 L 710.421875 788.59375 M 720.417969 789.707031 L 724.195312 792.152344 L 721.75 795.929688 L 717.972656 793.484375 M 727.972656 794.597656 L 731.746094 797.042969 L 729.300781 800.816406 L 725.527344 798.375 M 735.523438 799.488281 L 739.300781 801.933594 L 736.855469 805.707031 L 733.078125 803.261719 M 743.074219 804.378906 L 746.851562 806.824219 L 744.40625 810.597656 L 740.628906 808.152344 M 750.625 809.265625 L 754.402344 811.710938 L 751.957031 815.488281 L 748.179688 813.042969 M 758.179688 814.15625 L 760.53125 815.683594 L 758.089844 819.457031 L 755.734375 817.933594 " fill-opacity="1" fill-rule="nonzero"/><path fill="#000000" d="M 249.777344 1149.355469 L 253.570312 1146.933594 L 255.992188 1150.726562 L 252.199219 1153.148438 M 257.363281 1144.515625 L 261.152344 1142.09375 L 263.574219 1145.886719 L 259.78125 1148.304688 M 264.945312 1139.671875 L 268.734375 1137.253906 L 271.15625 1141.042969 L 267.367188 1143.464844 M 272.527344 1134.832031 L 276.320312 1132.410156 L 278.738281 1136.203125 L 274.949219 1138.625 M 280.109375 1129.992188 L 283.902344 1127.570312 L 286.324219 1131.363281 L 282.53125 1133.78125 M 287.695312 1125.148438 L 291.484375 1122.726562 L 293.90625 1126.519531 L 290.113281 1128.941406 M 295.277344 1120.308594 L 299.070312 1117.886719 L 301.488281 1121.679688 L 297.699219 1124.097656 M 302.859375 1115.464844 L 306.652344 1113.046875 L 309.074219 1116.835938 L 305.28125 1119.257812 M 310.441406 1110.625 L 314.234375 1108.203125 L 316.65625 1111.996094 L 312.863281 1114.417969 M 318.027344 1105.785156 L 321.816406 1103.363281 L 324.238281 1107.15625 L 320.445312 1109.574219 M 325.609375 1100.941406 L 329.402344 1098.523438 L 331.820312 1102.3125 L 328.03125 1104.734375 M 333.191406 1096.101562 L 336.984375 1093.679688 L 339.40625 1097.472656 L 335.613281 1099.894531 M 340.777344 1091.261719 L 344.566406 1088.839844 L 346.988281 1092.632812 L 343.195312 1095.050781 M 348.359375 1086.417969 L 352.148438 1084 L 354.570312 1087.789062 L 350.78125 1090.210938 M 355.941406 1081.578125 L 359.734375 1079.15625 L 362.152344 1082.949219 L 358.363281 1085.371094 M 363.523438 1076.738281 L 367.316406 1074.316406 L 369.738281 1078.105469 L 365.945312 1080.527344 M 371.109375 1071.894531 L 374.898438 1069.472656 L 377.320312 1073.265625 L 373.527344 1075.6875 M 378.691406 1067.054688 L 382.484375 1064.632812 L 384.902344 1068.425781 L 381.113281 1070.84375 M 386.273438 1062.210938 L 390.066406 1059.792969 L 392.488281 1063.582031 L 388.695312 1066.003906 M 393.855469 1057.371094 L 397.648438 1054.949219 L 400.070312 1058.742188 L 396.277344 1061.164062 M 401.441406 1052.53125 L 405.230469 1050.109375 L 407.652344 1053.902344 L 403.859375 1056.320312 M 409.023438 1047.6875 L 412.816406 1045.269531 L 415.234375 1049.058594 L 411.445312 1051.480469 M 416.605469 1042.847656 L 420.398438 1040.425781 L 422.820312 1044.21875 L 419.027344 1046.640625 M 424.191406 1038.007812 L 427.980469 1035.585938 L 430.402344 1039.378906 L 426.609375 1041.796875 M 431.773438 1033.164062 L 435.5625 1030.746094 L 437.984375 1034.535156 L 434.191406 1036.957031 M 439.355469 1028.324219 L 443.148438 1025.902344 L 445.566406 1029.695312 L 441.777344 1032.113281 M 446.9375 1023.480469 L 450.730469 1021.0625 L 453.152344 1024.851562 L 449.359375 1027.273438 M 454.523438 1018.640625 L 458.3125 1016.21875 L 460.734375 1020.011719 L 456.941406 1022.433594 M 462.105469 1013.800781 L 465.898438 1011.378906 L 468.316406 1015.171875 L 464.527344 1017.589844 M 469.6875 1008.957031 L 473.480469 1006.539062 L 475.898438 1010.328125 L 472.109375 1012.75 M 477.269531 1004.117188 L 481.0625 1001.695312 L 483.484375 1005.488281 L 479.691406 1007.910156 M 484.855469 999.277344 L 488.644531 996.855469 L 491.066406 1000.648438 L 487.273438 1003.066406 M 492.4375 994.433594 L 496.230469 992.015625 L 498.648438 995.804688 L 494.859375 998.226562 M 500.019531 989.59375 L 503.8125 987.171875 L 506.234375 990.964844 L 502.441406 993.386719 M 507.605469 984.753906 L 511.394531 982.332031 L 513.816406 986.121094 L 510.023438 988.542969 M 515.1875 979.910156 L 518.976562 977.488281 L 521.398438 981.28125 L 517.605469 983.703125 M 522.769531 975.070312 L 526.5625 972.648438 L 528.980469 976.441406 L 525.191406 978.859375 M 530.351562 970.226562 L 534.144531 967.808594 L 536.566406 971.597656 L 532.773438 974.019531 M 537.9375 965.386719 L 541.726562 962.964844 L 544.148438 966.757812 L 540.355469 969.179688 M 545.519531 960.546875 L 549.3125 958.125 L 551.730469 961.917969 L 547.941406 964.335938 M 553.101562 955.703125 L 556.894531 953.285156 L 559.3125 957.074219 L 555.523438 959.496094 M 560.683594 950.863281 L 564.476562 948.441406 L 566.898438 952.234375 L 563.105469 954.65625 M 568.269531 946.023438 L 572.058594 943.601562 L 574.480469 947.394531 L 570.6875 949.8125 M 575.851562 941.179688 L 579.644531 938.761719 L 582.0625 942.550781 L 578.273438 944.972656 M 583.433594 936.339844 L 587.226562 933.917969 L 589.648438 937.710938 L 585.855469 940.128906 M 591.019531 931.496094 L 594.808594 929.078125 L 597.230469 932.867188 L 593.4375 935.289062 M 598.601562 926.65625 L 602.390625 924.234375 L 604.8125 928.027344 L 601.019531 930.449219 M 606.183594 921.816406 L 609.976562 919.394531 L 612.394531 923.1875 L 608.605469 925.605469 M 613.765625 916.972656 L 617.558594 914.554688 L 619.980469 918.34375 L 616.1875 920.765625 M 621.351562 912.132812 L 625.140625 909.710938 L 627.5625 913.503906 L 623.769531 915.925781 M 628.933594 907.292969 L 632.726562 904.871094 L 635.144531 908.664062 L 631.355469 911.082031 M 636.515625 902.449219 L 640.308594 900.03125 L 642.726562 903.820312 L 638.9375 906.242188 M 644.097656 897.609375 L 647.890625 895.1875 L 650.3125 898.980469 L 646.519531 901.402344 M 651.683594 892.769531 L 655.472656 890.347656 L 657.894531 894.136719 L 654.101562 896.558594 M 659.265625 887.925781 L 663.058594 885.503906 L 665.476562 889.296875 L 661.6875 891.71875 M 666.847656 883.085938 L 670.640625 880.664062 L 673.0625 884.457031 L 669.269531 886.875 M 674.429688 878.242188 L 678.222656 875.824219 L 680.644531 879.613281 L 676.851562 882.035156 M 682.015625 873.402344 L 685.804688 870.980469 L 688.226562 874.773438 L 684.433594 877.195312 M 689.597656 868.5625 L 693.390625 866.140625 L 695.808594 869.933594 L 692.019531 872.351562 M 697.179688 863.71875 L 700.972656 861.300781 L 703.394531 865.089844 L 699.601562 867.511719 M 704.765625 858.878906 L 708.554688 856.457031 L 710.976562 860.25 L 707.183594 862.671875 M 712.347656 854.039062 L 716.136719 851.617188 L 718.558594 855.410156 L 714.769531 857.828125 M 719.929688 849.195312 L 723.722656 846.777344 L 726.140625 850.566406 L 722.351562 852.988281 M 727.511719 844.355469 L 731.304688 841.933594 L 733.726562 845.726562 L 729.933594 848.148438 M 735.097656 839.511719 L 738.886719 837.09375 L 741.308594 840.882812 L 737.515625 843.304688 M 742.679688 834.671875 L 746.472656 832.25 L 748.890625 836.042969 L 745.101562 838.464844 M 750.261719 829.832031 L 754.054688 827.410156 L 756.476562 831.203125 L 752.683594 833.621094 M 757.84375 824.988281 L 758.070312 824.847656 L 760.492188 828.636719 L 760.265625 828.78125 " fill-opacity="1" fill-rule="nonzero"/><g clip-path="url(#75394c4746)"><path fill="#000000" d="M 797.996094 793.597656 C 802.511719 786.820312 808.675781 783.429688 816.496094 783.429688 C 820.367188 783.429688 824.234375 784.519531 828.105469 786.695312 C 831.972656 788.871094 835.117188 792.71875 837.535156 798.242188 C 840.519531 805.183594 842.007812 814.722656 842.007812 826.855469 C 842.007812 839.824219 840.277344 849.738281 836.808594 856.601562 C 835.199219 860.113281 832.980469 862.917969 830.160156 865.007812 C 827.339844 867.101562 824.878906 868.398438 822.785156 868.898438 C 820.6875 869.402344 818.632812 869.695312 816.617188 869.777344 C 814.519531 869.777344 812.425781 869.527344 810.328125 869.023438 C 808.234375 868.523438 805.773438 867.183594 802.953125 865.007812 C 800.132812 862.832031 797.914062 860.03125 796.304688 856.601562 C 792.835938 849.738281 791.105469 839.824219 791.105469 826.855469 C 791.105469 812.296875 793.402344 801.210938 797.996094 793.597656 Z M 825.203125 792.089844 C 822.785156 789.414062 819.921875 788.074219 816.617188 788.074219 C 813.230469 788.074219 810.328125 789.414062 807.910156 792.089844 C 805.894531 794.265625 804.566406 797.277344 803.921875 801.128906 C 803.277344 804.976562 802.953125 813.007812 802.953125 825.222656 C 802.953125 838.445312 803.277344 847.144531 803.921875 851.328125 C 804.566406 855.511719 806.015625 858.816406 808.273438 861.242188 C 810.53125 863.753906 813.3125 865.007812 816.617188 865.007812 C 819.839844 865.007812 822.582031 863.753906 824.839844 861.242188 C 827.175781 858.734375 828.628906 855.21875 829.191406 850.703125 C 829.757812 846.183594 830.078125 837.691406 830.160156 825.222656 C 830.160156 813.09375 829.835938 805.101562 829.191406 801.253906 C 828.546875 797.402344 827.21875 794.351562 825.203125 792.089844 Z M 825.203125 792.089844 " fill-opacity="1" fill-rule="nonzero"/></g></svg>